<?xml version="1.0" encoding="iso-8859-1"?>
<!-- Generator: Adobe Illustrator 18.0.0, SVG Export Plug-In . SVG Version: 6.00 Build 0)  -->
<!DOCTYPE svg PUBLIC "-//W3C//DTD SVG 1.1//EN" "http://www.w3.org/Graphics/SVG/1.1/DTD/svg11.dtd">
<svg version="1.1" id="Capa_1" xmlns="http://www.w3.org/2000/svg" xmlns:xlink="http://www.w3.org/1999/xlink" x="0px" y="0px"
	 viewBox="0 0 117.135 117.135" style="enable-background:new 0 0 117.135 117.135;" xml:space="preserve">
<g>
	<path style="fill:#231F20;" d="M24.281,71.674c-5.78,0-10.483,4.702-10.483,10.482c0,5.779,4.702,10.482,10.483,10.482
		c5.78,0,10.483-4.703,10.483-10.482C34.764,76.376,30.061,71.674,24.281,71.674z M24.281,90.054c-4.354,0-7.897-3.543-7.897-7.897
		s3.542-7.897,7.897-7.897s7.897,3.543,7.897,7.897S28.635,90.054,24.281,90.054z"/>
	<path style="fill:#231F20;" d="M106.651,71.674c-5.78,0-10.482,4.702-10.482,10.482c0,5.779,4.702,10.482,10.482,10.482
		c5.78,0,10.483-4.703,10.483-10.482C117.135,76.376,112.432,71.674,106.651,71.674z M106.651,90.054
		c-4.354,0-7.897-3.543-7.897-7.897s3.543-7.897,7.897-7.897c4.355,0,7.897,3.543,7.897,7.897S111.006,90.054,106.651,90.054z"/>
	<path style="fill:#231F20;" d="M36.76,73.873v9.53h56.683c-0.109-0.667-0.181-1.346-0.181-2.042c0-2.807,0.934-5.393,2.491-7.488
		H36.76z"/>
	<path style="fill:#231F20;" d="M23.486,68.766c2.654,0,5.115,0.83,7.148,2.237V45.735H13.78C0,63.05,13.78,45.735,0,63.05v20.353
		h11.073c-0.109-0.667-0.181-1.346-0.181-2.042C10.892,74.417,16.542,68.766,23.486,68.766z M16.196,49.214l5.293,0.298v13.24H5.422
		L16.196,49.214z"/>
	<circle style="fill:#231F20;" cx="24.281" cy="82.156" r="5.172"/>
	<circle style="fill:#231F20;" cx="106.651" cy="82.156" r="5.172"/>
	<path style="fill:#231F20;" d="M114.365,24.496H36.76v43.568h77.605V24.496z M56.762,55.896h-8V30.973h8V55.896z M71.963,55.896
		h-8.001V30.973h8.001V55.896z M87.164,55.896h-8.001V30.973h8.001V55.896z M102.365,55.896h-8.001V30.973h8.001V55.896z"/>
</g>
<g>
</g>
<g>
</g>
<g>
</g>
<g>
</g>
<g>
</g>
<g>
</g>
<g>
</g>
<g>
</g>
<g>
</g>
<g>
</g>
<g>
</g>
<g>
</g>
<g>
</g>
<g>
</g>
<g>
</g>
</svg>
